<?xml version="1.0" standalone="no"?><svg xmlns="http://www.w3.org/2000/svg" viewBox="0 0 1440 320"><path fill="#fff" fill-opacity="1" d="M0,128L0,128L68.6,128L68.6,0L137.1,0L137.1,96L205.7,96L205.7,288L274.3,288L274.3,224L342.9,224L342.9,256L411.4,256L411.4,96L480,96L480,224L548.6,224L548.6,160L617.1,160L617.1,224L685.7,224L685.7,96L754.3,96L754.3,0L822.9,0L822.9,64L891.4,64L891.4,0L960,0L960,64L1028.6,64L1028.6,128L1097.1,128L1097.1,256L1165.7,256L1165.7,288L1234.3,288L1234.3,128L1302.9,128L1302.9,256L1371.4,256L1371.4,32L1440,32L1440,320L1371.4,320L1371.4,320L1302.9,320L1302.9,320L1234.3,320L1234.3,320L1165.7,320L1165.7,320L1097.1,320L1097.1,320L1028.6,320L1028.6,320L960,320L960,320L891.4,320L891.4,320L822.9,320L822.9,320L754.3,320L754.3,320L685.7,320L685.7,320L617.1,320L617.1,320L548.6,320L548.6,320L480,320L480,320L411.4,320L411.4,320L342.9,320L342.9,320L274.3,320L274.3,320L205.7,320L205.7,320L137.1,320L137.1,320L68.6,320L68.6,320L0,320L0,320Z"></path></svg>