<svg xmlns="http://www.w3.org/2000/svg" viewBox="0 0 1440 320">
  <path fill="#05263f" fill-opacity="1" d="M0,160L0,288L68.6,288L68.6,224L137.1,224L137.1,288L205.7,288L205.7,192L274.3,192L274.3,128L342.9,128L342.9,192L411.4,192L411.4,64L480,64L480,0L548.6,0L548.6,256L617.1,256L617.1,288L685.7,288L685.7,32L754.3,32L754.3,96L822.9,96L822.9,160L891.4,160L891.4,128L960,128L960,224L1028.6,224L1028.6,32L1097.1,32L1097.1,256L1165.7,256L1165.7,160L1234.3,160L1234.3,256L1302.9,256L1302.9,192L1371.4,192L1371.4,160L1440,160L1440,0L1371.4,0L1371.4,0L1302.9,0L1302.9,0L1234.3,0L1234.3,0L1165.7,0L1165.7,0L1097.1,0L1097.1,0L1028.6,0L1028.6,0L960,0L960,0L891.4,0L891.4,0L822.9,0L822.9,0L754.3,0L754.3,0L685.7,0L685.7,0L617.1,0L617.1,0L548.6,0L548.6,0L480,0L480,0L411.4,0L411.4,0L342.9,0L342.9,0L274.3,0L274.3,0L205.7,0L205.7,0L137.1,0L137.1,0L68.6,0L68.6,0L0,0L0,0Z"></path>
</svg>