<?xml version="1.0" standalone="no"?><svg xmlns="http://www.w3.org/2000/svg" viewBox="0 0 1440 320"><path fill="#fff" fill-opacity="1" d="M0,224L0,160L53.3,160L53.3,0L106.7,0L106.7,192L160,192L160,96L213.3,96L213.3,64L266.7,64L266.7,96L320,96L320,288L373.3,288L373.3,192L426.7,192L426.7,128L480,128L480,32L533.3,32L533.3,160L586.7,160L586.7,128L640,128L640,288L693.3,288L693.3,192L746.7,192L746.7,160L800,160L800,256L853.3,256L853.3,128L906.7,128L906.7,192L960,192L960,0L1013.3,0L1013.3,96L1066.7,96L1066.7,96L1120,96L1120,256L1173.3,256L1173.3,128L1226.7,128L1226.7,288L1280,288L1280,288L1333.3,288L1333.3,128L1386.7,128L1386.7,64L1440,64L1440,0L1386.7,0L1386.7,0L1333.3,0L1333.3,0L1280,0L1280,0L1226.7,0L1226.7,0L1173.3,0L1173.3,0L1120,0L1120,0L1066.7,0L1066.7,0L1013.3,0L1013.3,0L960,0L960,0L906.7,0L906.7,0L853.3,0L853.3,0L800,0L800,0L746.7,0L746.7,0L693.3,0L693.3,0L640,0L640,0L586.7,0L586.7,0L533.3,0L533.3,0L480,0L480,0L426.7,0L426.7,0L373.3,0L373.3,0L320,0L320,0L266.7,0L266.7,0L213.3,0L213.3,0L160,0L160,0L106.7,0L106.7,0L53.3,0L53.3,0L0,0L0,0Z"></path></svg>