<?xml version="1.0" standalone="no"?><svg xmlns="http://www.w3.org/2000/svg" viewBox="0 0 1440 320"><path fill="#273036" fill-opacity="1" d="M0,64L0,96L75.8,96L75.8,128L151.6,128L151.6,224L227.4,224L227.4,32L303.2,32L303.2,224L378.9,224L378.9,128L454.7,128L454.7,96L530.5,96L530.5,64L606.3,64L606.3,224L682.1,224L682.1,64L757.9,64L757.9,160L833.7,160L833.7,160L909.5,160L909.5,192L985.3,192L985.3,288L1061.1,288L1061.1,256L1136.8,256L1136.8,0L1212.6,0L1212.6,160L1288.4,160L1288.4,32L1364.2,32L1364.2,64L1440,64L1440,0L1364.2,0L1364.2,0L1288.4,0L1288.4,0L1212.6,0L1212.6,0L1136.8,0L1136.8,0L1061.1,0L1061.1,0L985.3,0L985.3,0L909.5,0L909.5,0L833.7,0L833.7,0L757.9,0L757.9,0L682.1,0L682.1,0L606.3,0L606.3,0L530.5,0L530.5,0L454.7,0L454.7,0L378.9,0L378.9,0L303.2,0L303.2,0L227.4,0L227.4,0L151.6,0L151.6,0L75.8,0L75.8,0L0,0L0,0Z"></path></svg>