<?xml version="1.0" standalone="no"?><svg xmlns="http://www.w3.org/2000/svg" viewBox="0 0 1440 320"><path fill="#fff" fill-opacity="1" d="M0,0L0,64L68.6,64L68.6,192L137.1,192L137.1,128L205.7,128L205.7,192L274.3,192L274.3,256L342.9,256L342.9,96L411.4,96L411.4,96L480,96L480,0L548.6,0L548.6,256L617.1,256L617.1,160L685.7,160L685.7,288L754.3,288L754.3,192L822.9,192L822.9,128L891.4,128L891.4,128L960,128L960,96L1028.6,96L1028.6,320L1097.1,320L1097.1,128L1165.7,128L1165.7,256L1234.3,256L1234.3,96L1302.9,96L1302.9,224L1371.4,224L1371.4,128L1440,128L1440,0L1371.4,0L1371.4,0L1302.9,0L1302.9,0L1234.3,0L1234.3,0L1165.7,0L1165.7,0L1097.1,0L1097.1,0L1028.6,0L1028.6,0L960,0L960,0L891.4,0L891.4,0L822.9,0L822.9,0L754.3,0L754.3,0L685.7,0L685.7,0L617.1,0L617.1,0L548.6,0L548.6,0L480,0L480,0L411.4,0L411.4,0L342.9,0L342.9,0L274.3,0L274.3,0L205.7,0L205.7,0L137.1,0L137.1,0L68.6,0L68.6,0L0,0L0,0Z"></path></svg>