<?xml version="1.0" standalone="no"?><svg xmlns="http://www.w3.org/2000/svg" viewBox="0 0 1440 320"><path fill="#05263f" fill-opacity="1" d="M0,224L6.3,224C12.6,224,25,224,38,186.7C50.5,149,63,75,76,48C88.4,21,101,43,114,80C126.3,117,139,171,152,192C164.2,213,177,203,189,186.7C202.1,171,215,149,227,154.7C240,160,253,192,265,170.7C277.9,149,291,75,303,90.7C315.8,107,328,213,341,218.7C353.7,224,366,128,379,122.7C391.6,117,404,203,417,234.7C429.5,267,442,245,455,224C467.4,203,480,181,493,186.7C505.3,192,518,224,531,234.7C543.2,245,556,235,568,202.7C581.1,171,594,117,606,106.7C618.9,96,632,128,644,128C656.8,128,669,96,682,101.3C694.7,107,707,149,720,165.3C732.6,181,745,171,758,154.7C770.5,139,783,117,796,106.7C808.4,96,821,96,834,133.3C846.3,171,859,245,872,266.7C884.2,288,897,256,909,256C922.1,256,935,288,947,282.7C960,277,973,235,985,197.3C997.9,160,1011,128,1023,138.7C1035.8,149,1048,203,1061,213.3C1073.7,224,1086,192,1099,154.7C1111.6,117,1124,75,1137,74.7C1149.5,75,1162,117,1175,117.3C1187.4,117,1200,75,1213,58.7C1225.3,43,1238,53,1251,58.7C1263.2,64,1276,64,1288,80C1301.1,96,1314,128,1326,165.3C1338.9,203,1352,245,1364,218.7C1376.8,192,1389,96,1402,85.3C1414.7,75,1427,149,1434,186.7L1440,224L1440,0L1433.7,0C1427.4,0,1415,0,1402,0C1389.5,0,1377,0,1364,0C1351.6,0,1339,0,1326,0C1313.7,0,1301,0,1288,0C1275.8,0,1263,0,1251,0C1237.9,0,1225,0,1213,0C1200,0,1187,0,1175,0C1162.1,0,1149,0,1137,0C1124.2,0,1112,0,1099,0C1086.3,0,1074,0,1061,0C1048.4,0,1036,0,1023,0C1010.5,0,998,0,985,0C972.6,0,960,0,947,0C934.7,0,922,0,909,0C896.8,0,884,0,872,0C858.9,0,846,0,834,0C821.1,0,808,0,796,0C783.2,0,771,0,758,0C745.3,0,733,0,720,0C707.4,0,695,0,682,0C669.5,0,657,0,644,0C631.6,0,619,0,606,0C593.7,0,581,0,568,0C555.8,0,543,0,531,0C517.9,0,505,0,493,0C480,0,467,0,455,0C442.1,0,429,0,417,0C404.2,0,392,0,379,0C366.3,0,354,0,341,0C328.4,0,316,0,303,0C290.5,0,278,0,265,0C252.6,0,240,0,227,0C214.7,0,202,0,189,0C176.8,0,164,0,152,0C138.9,0,126,0,114,0C101.1,0,88,0,76,0C63.2,0,51,0,38,0C25.3,0,13,0,6,0L0,0Z"></path></svg>