<?xml version="1.0" standalone="no"?><svg xmlns="http://www.w3.org/2000/svg" viewBox="0 0 1440 320"><path fill="#fff" fill-opacity="1" d="M0,96L0,128L53.3,128L53.3,288L106.7,288L106.7,320L160,320L160,128L213.3,128L213.3,192L266.7,192L266.7,256L320,256L320,96L373.3,96L373.3,256L426.7,256L426.7,32L480,32L480,192L533.3,192L533.3,128L586.7,128L586.7,288L640,288L640,96L693.3,96L693.3,224L746.7,224L746.7,128L800,128L800,32L853.3,32L853.3,192L906.7,192L906.7,96L960,96L960,96L1013.3,96L1013.3,64L1066.7,64L1066.7,256L1120,256L1120,0L1173.3,0L1173.3,288L1226.7,288L1226.7,0L1280,0L1280,160L1333.3,160L1333.3,96L1386.7,96L1386.7,224L1440,224L1440,320L1386.7,320L1386.7,320L1333.3,320L1333.3,320L1280,320L1280,320L1226.7,320L1226.7,320L1173.3,320L1173.3,320L1120,320L1120,320L1066.7,320L1066.7,320L1013.3,320L1013.3,320L960,320L960,320L906.7,320L906.7,320L853.3,320L853.3,320L800,320L800,320L746.7,320L746.7,320L693.3,320L693.3,320L640,320L640,320L586.7,320L586.7,320L533.3,320L533.3,320L480,320L480,320L426.7,320L426.7,320L373.3,320L373.3,320L320,320L320,320L266.7,320L266.7,320L213.3,320L213.3,320L160,320L160,320L106.7,320L106.7,320L53.3,320L53.3,320L0,320L0,320Z"></path></svg>